<?xml version="1.0" encoding="UTF-8"?>
<svg version="1.1" xmlns="http://www.w3.org/2000/svg" width="500" height="500">
<path d="M0 0 C165 0 330 0 500 0 C500 165 500 330 500 500 C335 500 170 500 0 500 C0 335 0 170 0 0 Z " fill="#FEFEFE" transform="translate(0,0)"/>
<path d="M0 0 C5.53536314 2.76768157 9.78366991 7.17209471 12 13 C12.1688051 15.86278931 12.23274535 18.62435954 12.1953125 21.484375 C12.1924826 22.29996887 12.18965271 23.11556274 12.18673706 23.95587158 C12.17556558 26.55406528 12.15046675 29.15191095 12.125 31.75 C12.11496627 33.51431793 12.10584111 35.27864128 12.09765625 37.04296875 C12.07563619 41.36211273 12.04112733 45.68099741 12 50 C10.02 50.99 10.02 50.99 8 52 C6.515 51.01 6.515 51.01 5 50 C4.72362695 47.22537508 4.63113702 44.66135902 4.6640625 41.88671875 C4.65154616 40.22981382 4.63850886 38.57291276 4.625 36.91601562 C4.62107374 34.30235054 4.62499121 31.68906786 4.63964844 29.07543945 C4.64823498 26.55362028 4.62650492 24.0333976 4.6015625 21.51171875 C4.61490631 20.73446945 4.62825012 19.95722015 4.64199829 19.15641785 C4.58652768 15.06889594 4.1889742 13.23461839 1.59130859 10.00952148 C-1.63633232 7.50653369 -3.13417835 7.25155244 -7.06640625 7.51171875 C-10.45966968 8.36860346 -11.98413808 10.25109739 -14 13 C-14.82704005 15.46823091 -14.82704005 15.46823091 -15 18 C-15.33333333 19.66666667 -15.66666667 21.33333333 -16 23 C-18.31 23 -20.62 23 -23 23 C-23 21.02 -23 19.04 -23 17 C-31.34434266 17.27488712 -31.34434266 17.27488712 -38 22 C-39.21693876 24.43387753 -39.31959896 26.41838846 -39.5625 29.125 C-39.64628906 30.03507812 -39.73007813 30.94515625 -39.81640625 31.8828125 C-39.90728516 32.93082031 -39.90728516 32.93082031 -40 34 C-37.36 34.33 -34.72 34.66 -32 35 C-32 35.99 -32 36.98 -32 38 C-31.34 38 -30.68 38 -30 38 C-29.938125 36.948125 -29.87625 35.89625 -29.8125 34.8125 C-28.85862552 30.33662744 -27.46953013 28.87717133 -24 26 C-20.801457 24.4007285 -17.47898371 24.63872092 -14 25 C-10.53163098 26.38734761 -9.27652966 27.58997326 -7.1875 30.6875 C-6 34 -6 34 -6.375 37.75 C-6.54854988 40.96687103 -6.02907672 41.96022635 -4.078125 44.62890625 C-2.47364592 46.3841246 -0.83628538 48.10997812 0.8359375 49.80078125 C3 52 3 52 5 55 C5.99 54.01 5.99 54.01 7 53 C12.50446164 50.9613105 17.75682272 51.72465892 23 54 C30.97002392 47.71351615 30.97002392 47.71351615 35.62109375 39.1875 C35.50161523 37.51988492 35.32961705 35.85493895 35.09765625 34.19921875 C34.97529478 31.44363843 35.6259569 30.52346925 37.375 28.4375 C41.01088932 25.06131706 42.99052315 24.70910178 47.96875 24.78125 C51.85614955 25.19989303 54.13021187 27.13021187 56.8125 29.8125 C58.35502854 32.65399994 58.2170174 34.81707811 58 38 C58.66 38 59.32 38 60 38 C60 37.01 60 36.02 60 35 C62.64 34.67 65.28 34.34 68 34 C68.36758629 27.0030248 68.36758629 27.0030248 65 21 C61.95396774 18.27460272 59.80559854 17.57931569 55.75 17.3125 C54.85796875 17.24675781 53.9659375 17.18101562 53.046875 17.11328125 C52.37140625 17.07589844 51.6959375 17.03851563 51 17 C51 18.98 51 20.96 51 23 C48.69 23 46.38 23 44 23 C42 15 42 15 41.53125 12.84375 C41.1047288 10.8628248 41.1047288 10.8628248 39.4375 9.25 C35.9543259 7.46375687 32.83823621 7.26703087 29 8 C26.56880377 9.87015094 25.35930827 11.28138345 24 14 C23.84323225 16.69655446 23.74163685 19.37129977 23.68359375 22.0703125 C23.6524221 23.26465408 23.6524221 23.26465408 23.62062073 24.48312378 C23.55515851 27.03032685 23.49625585 29.57763425 23.4375 32.125 C23.3943116 33.85027127 23.35069721 35.57553193 23.30664062 37.30078125 C23.19948055 41.53374685 23.09820377 45.76681753 23 50 C21.02 50.99 21.02 50.99 19 52 C16.02044816 49.02044816 16.67519453 45.73425124 16.6640625 41.73828125 C16.6540773 40.5022541 16.6540773 40.5022541 16.64389038 39.24125671 C16.63375247 37.49362421 16.62907371 35.7459529 16.62939453 33.99829102 C16.62504499 31.33999455 16.58880559 28.68339048 16.55078125 26.02539062 C16.54490835 24.32552649 16.54094213 22.62565449 16.5390625 20.92578125 C16.52469147 20.13698074 16.51032043 19.34818024 16.49551392 18.53547668 C16.54733588 12.1870317 18.30211585 8.05357534 22.5703125 3.22265625 C26.71675353 0.12845277 30.25253374 -0.81581639 35.4296875 -0.5625 C41.19189947 0.69853119 45.77019341 4.15529012 49 9 C51.85192819 9.39843042 51.85192819 9.39843042 55.125 9.375 C61.32450242 9.73082133 65.40884174 10.74530961 70 15 C74.76710198 20.44811655 76.25758305 24.78767452 76 32 C75.67 32.99 75.34 33.98 75 35 C75.74121094 35.10054687 76.48242188 35.20109375 77.24609375 35.3046875 C82.89909502 36.73197009 87.3826313 41.58761721 90.4375 46.4375 C91.96070135 49.91039907 92.3756717 52.33910142 92.65234375 56.03515625 C93.04748007 58.26834241 93.81589781 59.55673781 95.0625 61.4375 C97.59906332 65.51644248 97.85920239 69.30808108 97 74 C96.04542113 75.68642267 95.08447222 77.37314997 94.0078125 78.984375 C92.67889095 81.6422181 92.39804314 84.12421792 92 87.0625 C91.0641874 93.53251468 88.90366042 97.38410788 84.125 101.8125 C80.89454679 104.07381725 78.88729031 104.72233641 75 105 C75.33 105.99 75.66 106.98 76 108 C76.56334737 114.53482944 75.49019474 119.38999374 72 125 C68.41745389 128.94654812 64.32571143 131.79567393 58.9765625 132.265625 C57.31753906 132.25789063 57.31753906 132.25789063 55.625 132.25 C54.52414062 132.25515625 53.42328125 132.2603125 52.2890625 132.265625 C49 132 49 132 45.8359375 130.859375 C43.10327317 129.7028672 43.10327317 129.7028672 40.9609375 130.8515625 C40.31382812 131.23054687 39.66671875 131.60953125 39 132 C33.78635125 132.6773018 29.34517932 132.63590295 24.5625 130.375 C20.93793937 127.01565112 18.56466426 123.69399279 17 119 C16.90332575 116.42554636 16.8600008 113.8789917 16.8671875 111.3046875 C16.86623077 110.55663849 16.86527405 109.80858948 16.86428833 109.03787231 C16.86360857 107.45932938 16.86544863 105.88078364 16.86962891 104.30224609 C16.8749951 101.87721545 16.86966936 99.45236875 16.86328125 97.02734375 C16.86394177 95.49479126 16.8652224 93.96223888 16.8671875 92.4296875 C16.86516327 91.70055145 16.86313904 90.97141541 16.86105347 90.22018433 C16.8850382 85.1149618 16.8850382 85.1149618 18 84 C15.36 83.67 12.72 83.34 10 83 C10 83.66 10 84.32 10 85 C10.66 85 11.32 85 12 85 C12.09976706 89.39243685 12.17188558 93.78425272 12.21972656 98.17749023 C12.23969458 99.66816718 12.2668792 101.1587673 12.30175781 102.64916992 C12.72048556 121.01777103 12.72048556 121.01777103 6.48095703 127.60327148 C2.45273923 131.10668195 -0.07871684 132.15208875 -5.3125 132.1875 C-6.72982422 132.20876953 -6.72982422 132.20876953 -8.17578125 132.23046875 C-11 132 -11 132 -13.54296875 130.86328125 C-16.79290303 129.72141245 -17.91247535 130.62880325 -21 132 C-26.64068874 132.61404966 -32.8212028 133.09534086 -38 130.4375 C-42.31142342 126.93446848 -45.23752271 123.28743188 -47 118 C-47.06937062 115.77181559 -47.08457084 113.54165476 -47.0625 111.3125 C-47.05347656 110.13300781 -47.04445312 108.95351562 -47.03515625 107.73828125 C-47.02355469 106.83464844 -47.01195312 105.93101562 -47 105 C-47.91394531 104.89042969 -48.82789063 104.78085938 -49.76953125 104.66796875 C-55.39420306 103.50494713 -58.70792521 99.89504302 -61.875 95.25 C-63.14758157 91.57365324 -63.3535117 88.29128537 -63.6171875 84.43359375 C-64.08620192 81.45200209 -65.50338826 79.48203259 -67.1328125 76.984375 C-69.01896427 72.668316 -68.69263363 67.58011789 -68 63 C-67.02554105 61.31827246 -66.02500916 59.65140365 -65 58 C-64.54537443 56.0964216 -64.15159952 54.17751307 -63.8125 52.25 C-62.27586263 45.62938156 -59.13070221 41.39211743 -54 37 C-51.29856607 35.37607563 -50.21807185 35 -47 35 C-47.04640625 34.21496094 -47.0928125 33.42992187 -47.140625 32.62109375 C-47.51006455 21.86776392 -47.51006455 21.86776392 -44.43359375 17.53515625 C-40.23187073 13.03576348 -36.57068475 10.25788284 -30.30078125 9.62890625 C-26.84578586 9.62541283 -23.44410128 9.73544599 -20 10 C-19.731875 9.39542969 -19.46375 8.79085937 -19.1875 8.16796875 C-15.01455768 0.54960365 -8.03151196 -0.8896444 0 0 Z " fill="#644F99" transform="translate(236,145)"/>
<path d="M0 0 C2.71197735 1.38168109 3.90689934 2.64526175 6 5 C6.3125 7.75 6.3125 7.75 6 10 C6.33 10.33 6.66 10.66 7 11 C7.04063832 12.66617115 7.042721 14.33388095 7 16 C9.31 16 11.62 16 14 16 C14 14.02 14 12.04 14 10 C19.26785171 9.42763784 23.68080934 9.12384644 28.0625 12.4375 C31.30919511 15.63835942 31.88254297 18.59172708 32.125 23.046875 C32 25 32 25 31 27 C28.35139573 27.59355614 25.70802678 27.74209269 23 28 C23 28.99 23 29.98 23 31 C22.34 31 21.68 31 21 31 C20.731875 29.741875 20.46375 28.48375 20.1875 27.1875 C19.39041592 24.01039023 18.81455019 21.91389413 16 20 C12.28985899 18.76328633 8.85561242 18.43631397 5 19 C2.1899654 20.79363911 0.49059532 22.01880935 -1 25 C-0.90460938 25.65871094 -0.80921875 26.31742188 -0.7109375 26.99609375 C-0.30093655 29.97575179 -0.29672702 32.05504439 -1 35 C-4.26405489 39.1713333 -8.00338992 42.54347236 -12 46 C-12.66 46.66 -13.32 47.32 -14 48 C-15.65 47.34 -17.3 46.68 -19 46 C-18 44 -18 44 -15 43 C-14.98541748 41.93563721 -14.97083496 40.87127441 -14.95581055 39.7746582 C-14.8977022 35.81403531 -14.82047055 31.85397352 -14.73754883 27.89379883 C-14.70435831 26.18197762 -14.67630811 24.47004852 -14.65356445 22.75805664 C-14.61990968 20.29266521 -14.56759026 17.82825719 -14.51171875 15.36328125 C-14.50213387 14.22080681 -14.50213387 14.22080681 -14.49235535 13.05525208 C-14.36848994 8.54741458 -13.8116911 5.57048696 -11 2 C-7.29915107 -0.46723262 -4.29204185 -0.79212825 0 0 Z " fill="#F3F3F7" transform="translate(273,152)"/>
<path d="M0 0 C5.53132643 2.24921302 7.52016546 5.68712006 10 11 C8.62328125 10.91298828 8.62328125 10.91298828 7.21875 10.82421875 C-1.95489825 10.36019361 -1.95489825 10.36019361 -9.99609375 14.1171875 C-22.61944095 25.72137072 -22.61944095 25.72137072 -27.75 41.4375 C-27.80671875 42.48808594 -27.8634375 43.53867188 -27.921875 44.62109375 C-27.94765625 45.40613281 -27.9734375 46.19117188 -28 47 C-31.171875 47.8046875 -31.171875 47.8046875 -35 48 C-37.765625 45.9453125 -37.765625 45.9453125 -40.25 43.125 C-43.55744964 39.21414691 -43.55744964 39.21414691 -48 37 C-47.505 36.071875 -47.505 36.071875 -47 35.125 C-45.33278765 29.91496142 -44.7760234 24.64839535 -47.12109375 19.57421875 C-48.33542551 17.63747999 -49.59222741 15.79993781 -51 14 C-49.02 14.66 -47.04 15.32 -45 16 C-44.03900391 14.89978516 -44.03900391 14.89978516 -43.05859375 13.77734375 C-41.76115234 12.37162109 -41.76115234 12.37162109 -40.4375 10.9375 C-39.59058594 9.99777344 -38.74367188 9.05804688 -37.87109375 8.08984375 C-35 6 -35 6 -31.16015625 6.19140625 C-29.59587891 6.59166016 -29.59587891 6.59166016 -28 7 C-27.92652344 8.08667969 -27.92652344 8.08667969 -27.8515625 9.1953125 C-27.77679688 10.16210938 -27.70203125 11.12890625 -27.625 12.125 C-27.55539062 13.07632813 -27.48578125 14.02765625 -27.4140625 15.0078125 C-27.0147152 18.56652789 -27.0147152 18.56652789 -25 24 C-30.94 24.33 -36.88 24.66 -43 25 C-42.67 26.65 -42.34 28.3 -42 30 C-32.86443749 31.0840985 -32.86443749 31.0840985 -24.41015625 28.39453125 C-22.47413352 26.28430607 -21.07640001 24.65852243 -20 22 C-20.28538553 19.31658332 -20.79639398 17.40721203 -22 15 C-22.16796875 12.9765625 -22.16796875 12.9765625 -22.1875 10.625 C-22.20167969 9.85414063 -22.21585937 9.08328125 -22.23046875 8.2890625 C-21.97801607 5.78165112 -21.25193467 4.16738098 -20 2 C-19.236875 2.04125 -18.47375 2.0825 -17.6875 2.125 C-11.45219664 1.83498589 -7.0160983 -0.88041596 0 0 Z " fill="#F7F6F9" transform="translate(311,186)"/>
<path d="M0 0 C2.8100346 1.79363911 4.50940468 3.01880935 6 6 C6.08683445 8.77160626 6.1155579 11.51774765 6.09765625 14.2890625 C6.0962413 15.10748627 6.09482635 15.92591003 6.09336853 16.76913452 C6.0877629 19.38779325 6.07520948 22.00636704 6.0625 24.625 C6.05748572 26.39843627 6.05292269 28.17187387 6.04882812 29.9453125 C6.03779164 34.29690782 6.02052325 38.6484395 6 43 C7.98 43.66 9.96 44.32 12 45 C9.33333333 46.33333333 6.66666667 47.66666667 4 49 C3.90589844 48.41347656 3.81179687 47.82695312 3.71484375 47.22265625 C2.84150687 44.50719896 1.64000906 43.36815811 -0.4375 41.4375 C-2.69526817 39.32113693 -4.26012523 37.60981215 -6 35 C-5.96757444 33.02204076 -5.934066 31.04406456 -5.88671875 29.06640625 C-6.06424086 25.82815815 -7.22358165 23.66462752 -9 21 C-11.97242672 18.57802267 -15.27852067 18.62582791 -19.0390625 18.765625 C-22.18713787 19.14188899 -23.67634016 19.80912072 -26 22 C-27.28923745 24.93197548 -28.2010391 27.90159067 -29 31 C-29.66 31 -30.32 31 -31 31 C-31 30.01 -31 29.02 -31 28 C-33.64 27.67 -36.28 27.34 -39 27 C-39.86097841 17.31877615 -39.86097841 17.31877615 -36.625 13.4375 C-33.07871539 10.14452144 -31.58839124 9.87707191 -26.875 9.9375 C-25.96492187 9.94652344 -25.05484375 9.95554688 -24.1171875 9.96484375 C-23.41851562 9.97644531 -22.71984375 9.98804688 -22 10 C-22 11.98 -22 13.96 -22 16 C-19.69 16 -17.38 16 -15 16 C-15.04125 15.319375 -15.0825 14.63875 -15.125 13.9375 C-14.9167243 9.04302108 -14.13932146 5.30686873 -10.875 1.5625 C-7.12505068 -0.47551593 -4.18157684 -0.86165826 0 0 Z " fill="#F5F6F9" transform="translate(235,152)"/>
<path d="M0 0 C7.61386548 3.65465543 15.87510925 12.02062779 19 20 C19.73063234 25.02213601 19.86375018 30.63619021 17 35 C14.5625 36.125 14.5625 36.125 12 37 C10.9805881 37.98020375 9.97753644 38.97803008 9 40 C4.61941901 41.46019366 0.56840704 41.74063569 -4 41 C-8.24865405 38.61982337 -11.15162905 35.51429058 -13 31 C-13 30.01 -13 29.02 -13 28 C0.39372197 26.9264574 0.39372197 26.9264574 4.33203125 29.55859375 C5.78137699 31.31120891 6.96350475 32.97857644 8 35 C9.98 34.505 9.98 34.505 12 34 C12.32527608 30.93139369 12.32527608 30.93139369 10.25 28.95703125 C9.13625 27.89548828 9.13625 27.89548828 8 26.8125 C7.2575 26.09707031 6.515 25.38164062 5.75 24.64453125 C5.1725 24.10183594 4.595 23.55914062 4 23 C4.60328125 22.88785156 5.2065625 22.77570313 5.828125 22.66015625 C9.06838196 21.675258 10.7451287 19.44277724 13 17 C12.34 15.35 11.68 13.7 11 12 C10.56429687 12.38671875 10.12859375 12.7734375 9.6796875 13.171875 C-1.25379893 22.73275924 -1.25379893 22.73275924 -8.87890625 22.3984375 C-12.06134526 21.80063128 -13.81578972 20.32072342 -16 18 C-17.74221711 14.51556578 -17.58675154 10.80112955 -17 7 C-12.9828741 -0.25480947 -7.65062733 -0.81717227 0 0 Z " fill="#F9F8FA" transform="translate(192,203)"/>
<path d="M0 0 C6.83464829 5.85826996 6.83464829 5.85826996 7.640625 10.46484375 C7.88289641 16.77255302 7.04928719 20.86511392 3.1875 25.875 C-2.18613408 29.78981245 -7.38149463 29.78998044 -13.8125 28.875 C-17.80605652 27.12684783 -19.59092477 24.27383542 -21.6875 20.5 C-23.1239458 15.87145243 -23.91336304 12.32589262 -21.86328125 7.76171875 C-16.90947095 -0.78633876 -9.48756991 -3.79502796 0 0 Z " fill="#080808" transform="translate(221.8125,315.125)"/>
<path d="M0 0 C0.66 0.33 1.32 0.66 2 1 C1.67 1.99 1.34 2.98 1 4 C0.89425783 6.44116997 0.83900787 8.85907375 0.82421875 11.30078125 C0.80101583 12.7675924 0.7768983 14.23438932 0.75195312 15.70117188 C0.7168984 18.00522334 0.68752188 20.30875186 0.67407227 22.61303711 C0.65852215 24.84292426 0.61827126 27.07129809 0.57421875 29.30078125 C0.57612717 29.98223709 0.57803558 30.66369293 0.58000183 31.36579895 C0.45418511 36.32912465 -0.93386539 39.14976515 -4 43 C-6.65863745 45.10857453 -7.98701207 45.00023614 -11.4375 44.9375 C-15.82602339 43.78262542 -17.3774682 42.70239783 -20 39 C-20.67878603 35.99825734 -20.92636595 33.07254797 -21 30 C-20.071875 29.62875 -19.14375 29.2575 -18.1875 28.875 C-14.30586012 26.59168243 -13.41611012 25.24833037 -12 21 C-12.17212613 19.62299098 -12.36102399 18.24802173 -12.5625 16.875 C-12.71373331 14.1940459 -12.44219441 12.59904828 -10.83544922 10.42236328 C-7.47840905 6.67734002 -3.77316185 3.31836109 0 0 Z " fill="#F8F5FB" transform="translate(241,226)"/>
<path d="M0 0 C1.87890625 1.8125 1.87890625 1.8125 3.5625 4 C5.85282579 7.02591621 5.85282579 7.02591621 9.08984375 8.8125 C11.08477762 9.17946582 11.08477762 9.17946582 13 8 C12 10 11 12 10 14 C9.90316436 15.76867455 9.87020618 17.54118303 9.875 19.3125 C9.87242187 20.25738281 9.86984375 21.20226562 9.8671875 22.17578125 C9.994637 24.88595736 10.39403774 27.35973585 11 30 C10.34 30.33 9.68 30.66 9 31 C6.15485209 32.89676527 4.34704364 34.74182541 2.0625 37.25 C0.00390625 39.390625 0.00390625 39.390625 -2 41 C-5.5 41 -5.5 41 -8 40 C-8.00257813 39.31035156 -8.00515625 38.62070313 -8.0078125 37.91015625 C-8.28430723 31.19133435 -9.57422014 27.18499822 -13.72265625 21.875 C-15 20 -15 20 -15 17 C-14.484375 17.99 -13.96875 18.98 -13.4375 20 C-12.14956989 21.79944826 -12.14956989 21.79944826 -10 23 C-4.95188589 23.54777408 -0.05764863 23.3435384 5 23 C5.33 21.35 5.66 19.7 6 18 C0.06 17.67 -5.88 17.34 -12 17 C-10 12 -10 12 -9 10 C-8.77377919 8.29636178 -8.59111527 6.58671299 -8.4375 4.875 C-8.35371094 3.96492187 -8.26992187 3.05484375 -8.18359375 2.1171875 C-8.12300781 1.41851562 -8.06242188 0.71984375 -8 0 C-4.6280403 -1.12398657 -3.33930012 -1.07022254 0 0 Z " fill="#F7F6F9" transform="translate(226,193)"/>
<path d="M0 0 C2.45569748 1.08725537 3.94509361 2.22278366 6 4 C5.01 5.65 4.02 7.3 3 9 C2.29875 8.67 1.5975 8.34 0.875 8 C-2.34160154 6.88118207 -4.61830655 6.63242462 -8 7 C-10.28423184 8.66468783 -10.92654299 9.56213863 -11.3984375 12.375 C-11.39070312 13.24125 -11.38296875 14.1075 -11.375 15 C-11.38273438 15.86625 -11.39046875 16.7325 -11.3984375 17.625 C-10.92605662 20.44076056 -10.29644567 21.34354738 -8 23 C-4.90498792 23.25265405 -2.79870027 23.39935013 0 22 C0.33 21.01 0.66 20.02 1 19 C-1.31 19 -3.62 19 -6 19 C-6 17.02 -6 15.04 -6 13 C-1.05 13 3.9 13 9 13 C9 21.5 9 21.5 6 26 C2.40349187 29.41668272 -0.60226826 30.3331616 -5.4375 30.625 C-10.46051761 30.44707295 -13.08707337 29.16263801 -16.66015625 25.703125 C-20.0409646 21.40565433 -20.43469764 17.831293 -20.31640625 12.46875 C-19.84613026 8.79943611 -18.4200872 6.74712601 -16 4 C-14.9790625 2.824375 -14.9790625 2.824375 -13.9375 1.625 C-9.40913501 -0.88005297 -5.05710573 -0.76891666 0 0 Z " fill="#111111" transform="translate(180,314)"/>
<path d="M0 0 C0.99 0.33 1.98 0.66 3 1 C3 7.6 3 14.2 3 21 C5.97 21 8.94 21 12 21 C14.55859375 22.4609375 14.55859375 22.4609375 16.4375 24.375 C17.07558594 25.00148437 17.71367187 25.62796875 18.37109375 26.2734375 C19.17740234 27.12808594 19.17740234 27.12808594 20 28 C20.66 28.66 21.32 29.32 22 30 C21.625 32.125 21.625 32.125 21 34 C19.02 34.495 19.02 34.495 17 35 C16.360625 34.030625 15.72125 33.06125 15.0625 32.0625 C12.67445952 29.12921328 10.92609574 28.50829452 7.1875 28.125 C5.79271423 28.05673969 4.39644183 28.00608471 3 28 C4.25310404 35.01318235 4.25310404 35.01318235 9 40 C12.48254713 40.74751373 12.48254713 40.74751373 16 41 C17.33917261 41.30903983 18.67653254 41.62942911 20 42 C20 42.66 20 43.32 20 44 C21.65 44 23.3 44 25 44 C19.33842198 48.34054315 15.10589435 48.71360467 8 48 C3.07993933 45.67415314 0.68768565 42.67856392 -2 38 C-3.17815946 34.46552162 -3.18078573 31.23851281 -3.203125 27.55859375 C-3.20882507 26.83511246 -3.21452515 26.11163116 -3.22039795 25.3662262 C-3.22983198 23.83897356 -3.23637559 22.31170072 -3.24023438 20.78442383 C-3.24997913 18.44251508 -3.28103143 16.10146993 -3.3125 13.75976562 C-3.31902655 12.27604688 -3.32427839 10.79232186 -3.328125 9.30859375 C-3.3404718 8.60649277 -3.3528186 7.90439178 -3.36553955 7.18101501 C-3.35644531 5.20874023 -3.35644531 5.20874023 -3 2 C-2.01 1.34 -1.02 0.68 0 0 Z " fill="#682DAA" transform="translate(256,229)"/>
<path d="M0 0 C2.31 0 4.62 0 7 0 C8.57328857 3.78753248 10.13966727 7.57784014 11.69970703 11.37084961 C12.23134392 12.66069346 12.76486022 13.94976435 13.30029297 15.23803711 C14.06972387 17.09023857 14.83183735 18.94547446 15.59375 20.80078125 C16.05458984 21.91622314 16.51542969 23.03166504 16.99023438 24.1809082 C18 27 18 27 18 30 C15.69 30 13.38 30 11 30 C10.34 28.35 9.68 26.7 9 25 C5.04 24.67 1.08 24.34 -3 24 C-3.33 25.98 -3.66 27.96 -4 30 C-6.64 30 -9.28 30 -12 30 C-10.37829996 25.74873345 -8.75207211 21.49921311 -7.125 17.25 C-6.66480469 16.0434375 -6.20460938 14.836875 -5.73046875 13.59375 C-5.28574219 12.43359375 -4.84101563 11.2734375 -4.3828125 10.078125 C-3.97434082 9.00981445 -3.56586914 7.94150391 -3.14501953 6.84082031 C-2.19619371 4.48676119 -1.17927415 2.24488333 0 0 Z " fill="#080808" transform="translate(390,314)"/>
<path d="M0 0 C2.31 0 4.62 0 7 0 C8.57328857 3.78753248 10.13966727 7.57784014 11.69970703 11.37084961 C12.23134392 12.66069346 12.76486022 13.94976435 13.30029297 15.23803711 C14.06972387 17.09023857 14.83183735 18.94547446 15.59375 20.80078125 C16.05458984 21.91622314 16.51542969 23.03166504 16.99023438 24.1809082 C18 27 18 27 18 30 C15.69 30 13.38 30 11 30 C10.34 28.35 9.68 26.7 9 25 C5.04 24.67 1.08 24.34 -3 24 C-3.33 25.98 -3.66 27.96 -4 30 C-6.64 30 -9.28 30 -12 30 C-10.37829996 25.74873345 -8.75207211 21.49921311 -7.125 17.25 C-6.66480469 16.0434375 -6.20460938 14.836875 -5.73046875 13.59375 C-5.28574219 12.43359375 -4.84101562 11.2734375 -4.3828125 10.078125 C-3.97434082 9.00981445 -3.56586914 7.94150391 -3.14501953 6.84082031 C-2.19619371 4.48676119 -1.17927415 2.24488333 0 0 Z " fill="#080808" transform="translate(103,314)"/>
<path d="M0 0 C4.20662891 1.70055211 6.17039752 3.8593207 8 8 C8.59866575 12.01961286 8.18471519 13.66878655 6.1875 17.25 C3.9817821 20.02290251 2.34948436 21.65334347 -1.12890625 22.546875 C-5.70238705 22.92861015 -8.10684997 22.69936504 -11.80859375 19.80078125 C-14.29624019 17.2698086 -16.64308833 14.65152563 -19 12 C-19.66 11.67 -20.32 11.34 -21 11 C-19.63310446 7.84930578 -18.14342115 5.99108226 -15.5 3.8125 C-14.8915625 3.30332031 -14.283125 2.79414063 -13.65625 2.26953125 C-9.51576929 -0.90418627 -5.02105712 -0.43558067 0 0 Z " fill="#FBFAFC" transform="translate(318,203)"/>
<path d="M0 0 C0.66 0 1.32 0 2 0 C3.55078125 1.57421875 3.55078125 1.57421875 5.3125 3.6875 C7.44402129 6.23819074 9.36288791 8.30111976 11.9375 10.4375 C14.62224347 13.77309037 14.22251321 15.72112267 13.99609375 19.8515625 C14.00181903 23.00046571 14.98102814 24.63292955 17 27 C17.886875 27.45375 18.77375 27.9075 19.6875 28.375 C20.450625 28.91125 21.21375 29.4475 22 30 C22.73022248 34.30019904 22.28924614 36.45249837 20.25 40.3125 C16.96359018 44.23793395 16.96359018 44.23793395 14 45 C9.5343354 44.9188061 7.56362391 44.47785505 4.125 41.5625 C0.98494829 37.77596705 0.89430307 35.86205875 1 31 C8.82152466 30.07982063 8.82152466 30.07982063 11.7109375 32.3359375 C13.0625 34 13.0625 34 15 37 C16.98 36.505 16.98 36.505 19 36 C18.42883414 32.4064148 17.16522128 30.75033137 14.5 28.3125 C13.8709375 27.71050781 13.241875 27.10851562 12.59375 26.48828125 C8.88036183 24.35755701 5.2195118 24.23840014 1 24 C0.83168475 20.75008318 0.66563638 17.50005436 0.5 14.25 C0.45230469 13.32960937 0.40460938 12.40921875 0.35546875 11.4609375 C0.31035156 10.57148438 0.26523437 9.68203125 0.21875 8.765625 C0.17685547 7.94868164 0.13496094 7.13173828 0.09179688 6.29003906 C0.00780937 4.19481876 0 2.09690296 0 0 Z " fill="#F7F5FA" transform="translate(258,226)"/>
<path d="M0 0 C0.09976706 4.39243685 0.17188558 8.78425272 0.21972656 13.17749023 C0.23969458 14.66816718 0.2668792 16.1587673 0.30175781 17.64916992 C0.72048556 36.01777103 0.72048556 36.01777103 -5.51904297 42.60327148 C-9.57446827 46.13034478 -12.16399655 47.1659601 -17.4375 47.25 C-18.40558594 47.27578125 -19.37367188 47.3015625 -20.37109375 47.328125 C-23 47 -23 47 -24.84765625 45.484375 C-25.22792969 44.99453125 -25.60820312 44.5046875 -26 44 C-25.34 44 -24.68 44 -24 44 C-23.67 42.68 -23.34 41.36 -23 40 C-21.783125 40.061875 -20.56625 40.12375 -19.3125 40.1875 C-15.4014614 40.18057781 -13.09327165 39.54740018 -10 37 C-7.55126329 33.385764 -7.65543916 29.60956348 -7.5859375 25.390625 C-7.56657135 24.66381531 -7.5472052 23.93700562 -7.5272522 23.18817139 C-7.46765729 20.87556552 -7.42115242 18.56290933 -7.375 16.25 C-7.33680164 14.67836418 -7.29774883 13.10674887 -7.2578125 11.53515625 C-7.16197257 7.69027158 -7.07786805 3.84528893 -7 0 C-3.86650268 -1.04449911 -3.01031744 -0.93423645 0 0 Z " fill="#703CAA" transform="translate(248,230)"/>
<path d="M0 0 C2.31 0 4.62 0 7 0 C9.84986996 5.59795885 12.48212798 11.24486394 15 17 C17.31 11.39 19.62 5.78 22 0 C24.64 0 27.28 0 30 0 C26 10 22 20 18 30 C16.02 30 14.04 30 12 30 C8.79587582 23.15999022 5.64532534 16.29817768 2.625 9.375 C2.12226563 8.22773438 1.61953125 7.08046875 1.1015625 5.8984375 C0 3 0 3 0 0 Z " fill="#0A0A0A" transform="translate(261,314)"/>
<path d="M0 0 C0.77085937 -0.01417969 1.54171875 -0.02835937 2.3359375 -0.04296875 C4.84334888 0.20948393 6.45761902 0.93556533 8.625 2.1875 C7.965 3.8375 7.305 5.4875 6.625 7.1875 C3.655 7.1875 0.685 7.1875 -2.375 7.1875 C-2.375 8.1775 -2.375 9.1675 -2.375 10.1875 C-1.76011719 10.51363281 -1.14523437 10.83976562 -0.51171875 11.17578125 C0.70064453 11.83126953 0.70064453 11.83126953 1.9375 12.5 C2.73800781 12.92925781 3.53851563 13.35851562 4.36328125 13.80078125 C6.49925872 15.11040474 8.05247435 16.24437913 9.625 18.1875 C10.03658832 22.05643019 9.91927725 24.97551186 7.625 28.1875 C4.30772673 30.31025056 1.5186708 30.48539873 -2.375 30.5 C-3.921875 30.52513672 -3.921875 30.52513672 -5.5 30.55078125 C-8.68511968 30.14831368 -10.03233538 29.32180263 -12.375 27.1875 C-11.715 25.2075 -11.055 23.2275 -10.375 21.1875 C-9.67375 21.5175 -8.9725 21.8475 -8.25 22.1875 C-5.11496884 23.27794562 -2.66936818 23.34072643 0.625 23.1875 C0.955 21.8675 1.285 20.5475 1.625 19.1875 C0.738125 18.94 -0.14875 18.6925 -1.0625 18.4375 C-4.62990855 17.09130809 -6.7536556 15.95863551 -9.375 13.1875 C-10.4375 9.75 -10.4375 9.75 -10.375 6.1875 C-7.44213109 1.5353631 -5.38911546 0.0447601 0 0 Z " fill="#0A0A0A" transform="translate(332.375,313.8125)"/>
<path d="M0 0 C3.81552617 1.49895671 5.53745046 3.7986856 8 7 C8.66 7.33 9.32 7.66 10 8 C8.33248852 11.94139078 5.77289351 14.7892812 3 18 C4.32 18.99 5.64 19.98 7 21 C7.33128906 20.4225 7.66257812 19.845 8.00390625 19.25 C9.84116946 16.59771025 11.33805315 14.85603634 14 13 C19.09189227 12.2890171 23.89523159 12.52697127 29 13 C28.32467034 18.37295246 27.20842116 20.47667066 23 24 C18.51742854 26.66328514 14.0856104 26.9310579 9 26 C6.84565645 24.65854073 5.2286854 23.23521848 3.47265625 21.41015625 C1.94171569 19.74294872 1.94171569 19.74294872 -1 19 C-3.55665832 14.69404914 -3.60686313 9.86370016 -3 5 C-1.5 1.9375 -1.5 1.9375 0 0 Z " fill="#F8F6FA" transform="translate(292,218)"/>
<path d="M0 0 C0.99 0.33 1.98 0.66 3 1 C4.9848779 6.95463371 4.74454605 13.33937378 2 19 C2 19.99 2 20.98 2 22 C1.57589844 21.46890625 1.15179688 20.9378125 0.71484375 20.390625 C-3.93919674 14.78531909 -7.98934901 11.33688366 -15 9 C-17.06145107 8.931009 -19.12501401 8.91532273 -21.1875 8.9375 C-22.27417969 8.94652344 -23.36085937 8.95554688 -24.48046875 8.96484375 C-25.31191406 8.97644531 -26.14335937 8.98804688 -27 9 C-26.07862913 4.94596818 -25.38548724 3.30346868 -22.0625 0.6875 C-14.74495914 -3.34461435 -7.7625479 -2.63926629 0 0 Z " fill="#F9F9FB" transform="translate(207,188)"/>
<path d="M0 0 C0.66 0 1.32 0 2 0 C2.25523437 0.93972656 2.25523437 0.93972656 2.515625 1.8984375 C2.75796875 2.71570313 3.0003125 3.53296875 3.25 4.375 C3.59804687 5.59316406 3.59804687 5.59316406 3.953125 6.8359375 C4.80440865 9.17109869 4.80440865 9.17109869 7.06640625 9.984375 C7.70449219 10.31953125 8.34257812 10.6546875 9 11 C9.57421875 13.2421875 9.57421875 13.2421875 9.6875 15.875 C9.85386795 19.05975783 10.12120921 21.92780456 11 25 C7.33237392 27.34728069 4.28301385 27.4430704 0 27 C-3.81422234 24.94618797 -7.00010435 22.89453363 -9 19 C-9.86294126 14.72416493 -10.39259291 11.17777873 -9 7 C-7.15234375 6.26953125 -7.15234375 6.26953125 -4.9375 5.8125 C-3.83728516 5.57466797 -3.83728516 5.57466797 -2.71484375 5.33203125 C-2.14894531 5.22246094 -1.58304688 5.11289063 -1 5 C-0.67 3.35 -0.34 1.7 0 0 Z " fill="#F6F4FA" transform="translate(205,244)"/>
<path d="M0 0 C0.66 0 1.32 0 2 0 C2 1.65 2 3.3 2 5 C2.56589844 5.12117187 3.13179688 5.24234375 3.71484375 5.3671875 C4.44832031 5.53476563 5.18179687 5.70234375 5.9375 5.875 C6.66839844 6.03742188 7.39929688 6.19984375 8.15234375 6.3671875 C10 7 10 7 11 9 C11.38691286 13.64295428 11.47190735 16.0561853 9.375 20.25 C5.75896533 24.43698752 2.9568242 26.76383156 -2.625 27.4375 C-6.09893865 26.98717462 -7.5107319 26.38969738 -10 24 C-9.67 23.34 -9.34 22.68 -9 22 C-8.89794129 20.18845792 -8.81742168 18.37566161 -8.75 16.5625 C-8.5078125 13.546875 -8.5078125 13.546875 -8 11 C-5.625 9.3125 -5.625 9.3125 -3 8 C-1.65653866 5.38683599 -0.87889827 2.82172603 0 0 Z " fill="#F8F6FB" transform="translate(294,244)"/>
<path d="M0 0 C6.93 0 13.86 0 21 0 C21 1.98 21 3.96 21 6 C18.69 6 16.38 6 14 6 C14 13.92 14 21.84 14 30 C11.69 30 9.38 30 7 30 C7 22.08 7 14.16 7 6 C4.69 6 2.38 6 0 6 C0 4.02 0 2.04 0 0 Z " fill="#090909" transform="translate(351,314)"/>
<path d="M0 0 C2.31 0 4.62 0 7 0 C7 7.92 7 15.84 7 24 C10.3 24 13.6 24 17 24 C17 25.98 17 27.96 17 30 C11.39 30 5.78 30 0 30 C0 20.1 0 10.2 0 0 Z " fill="#070707" transform="translate(132,314)"/>
<path d="M0 0 C5.26785171 -0.57236216 9.68080934 -0.87615356 14.0625 2.4375 C17.30919511 5.63835942 17.88254297 8.59172708 18.125 13.046875 C18 15 18 15 17 17 C14.35139573 17.59355614 11.70802678 17.74209269 9 18 C9 18.99 9 19.98 9 21 C8.34 21 7.68 21 7 21 C6.5978125 19.1128125 6.5978125 19.1128125 6.1875 17.1875 C5.1073297 12.94678584 5.1073297 12.94678584 2 10 C0.02379014 8.95377125 -1.9737129 7.94560065 -4 7 C-2.68 6.67 -1.36 6.34 0 6 C0 4.02 0 2.04 0 0 Z " fill="#FAFAFC" transform="translate(287,162)"/>
<path d="M0 0 C0.91007813 0.00902344 1.82015625 0.01804688 2.7578125 0.02734375 C3.45648438 0.03894531 4.15515625 0.05054688 4.875 0.0625 C4.875 2.0425 4.875 4.0225 4.875 6.0625 C6.855 6.0625 8.835 6.0625 10.875 6.0625 C10.070625 6.43375 10.070625 6.43375 9.25 6.8125 C8.46625 7.225 7.6825 7.6375 6.875 8.0625 C5.3590625 8.8359375 5.3590625 8.8359375 3.8125 9.625 C-0.11963748 12.88783748 -0.94362159 16.21263072 -2.125 21.0625 C-2.785 21.0625 -3.445 21.0625 -4.125 21.0625 C-4.125 20.0725 -4.125 19.0825 -4.125 18.0625 C-6.765 17.7325 -9.405 17.4025 -12.125 17.0625 C-12.98597841 7.38127615 -12.98597841 7.38127615 -9.75 3.5 C-6.20371539 0.20702144 -4.71339124 -0.06042809 0 0 Z " fill="#FAFBFC" transform="translate(208.125,161.9375)"/>
<path d="M0 0 C4.15099737 0.84714232 5.59192103 2.20978789 8.0625 5.625 C8.63417363 9.62671543 8.43188628 11.85264686 6.6875 15.5 C5.0625 17.625 5.0625 17.625 3.0625 18.625 C0.1875 19 0.1875 19 -2.9375 18.625 C-5.43119699 16.52504464 -6.68095547 14.92342946 -7.3203125 11.6875 C-7.53099867 7.97942334 -7.10702866 5.93797599 -5.3125 2.625 C-2.9375 0.625 -2.9375 0.625 0 0 Z " fill="#F7F7F7" transform="translate(213.9375,319.375)"/>
<path d="M0 0 C0.66 0.33 1.32 0.66 2 1 C1.67 1.99 1.34 2.98 1 4 C0.85284801 5.62567079 0.75278133 7.25586857 0.68359375 8.88671875 C0.64169922 9.82451172 0.59980469 10.76230469 0.55664062 11.72851562 C0.49766602 13.19321289 0.49766602 13.19321289 0.4375 14.6875 C0.39431641 15.67556641 0.35113281 16.66363281 0.30664062 17.68164062 C0.20058346 20.12095546 0.09852286 22.56037113 0 25 C-0.61488281 24.98839844 -1.22976562 24.97679687 -1.86328125 24.96484375 C-3.07564453 24.95130859 -3.07564453 24.95130859 -4.3125 24.9375 C-5.11300781 24.92589844 -5.91351563 24.91429687 -6.73828125 24.90234375 C-9.16861334 24.90342145 -9.16861334 24.90342145 -12 26 C-13.61039864 22.77920272 -12.5580421 19.4412596 -12 16 C-11.93683594 15.20851562 -11.87367188 14.41703125 -11.80859375 13.6015625 C-10.65897991 9.90280494 -8.19233769 7.76349679 -5.4375 5.1875 C-4.91736328 4.68541016 -4.39722656 4.18332031 -3.86132812 3.66601562 C-2.5831143 2.43470873 -1.29272853 1.2160593 0 0 Z " fill="#FCFBFC" transform="translate(241,226)"/>
<path d="M0 0 C1.90625 0.41015625 1.90625 0.41015625 4.40625 1.91015625 C6.51761591 5.42909943 6.84862143 8.41122356 5.90625 12.41015625 C3.36392292 15.40112929 1.7487803 16.25218182 -2.09375 16.97265625 C-6.19764613 16.20317573 -7.63334272 14.73894257 -10.09375 11.41015625 C-10.80335213 7.62561157 -10.37176176 5.94301212 -8.59375 2.53515625 C-5.55267495 -0.04975755 -3.89338955 -0.28328767 0 0 Z " fill="#FBFAFB" transform="translate(252.09375,204.58984375)"/>
<path d="M0 0 C2.8100346 1.79363911 4.50940468 3.01880935 6 6 C6.06996014 7.70702735 6.08440154 9.41668003 6.0625 11.125 C6.05347656 12.03507813 6.04445312 12.94515625 6.03515625 13.8828125 C6.02355469 14.58148438 6.01195312 15.28015625 6 16 C2.9375 16.4375 2.9375 16.4375 -1 16 C-3.05653916 14.36649639 -4.70561631 12.6138316 -6.421875 10.62890625 C-8.00812897 8.74100232 -8.00812897 8.74100232 -11 8 C-11 8.66 -11 9.32 -11 10 C-11.66 10 -12.32 10 -13 10 C-13.75 8.3125 -13.75 8.3125 -14 6 C-10.17221717 0.32432201 -6.79012082 -0.97559207 0 0 Z " fill="#F8F8FB" transform="translate(235,152)"/>
<path d="M0 0 C2.31 0 4.62 0 7 0 C7 9.9 7 19.8 7 30 C4.69 30 2.38 30 0 30 C0 20.1 0 10.2 0 0 Z " fill="#080808" transform="translate(301,314)"/>
<path d="M0 0 C2.82052478 1.38100383 3.88314024 2.50319105 6 5 C5.875 8.3125 5.875 8.3125 5 11 C4.34 10.67 3.68 10.34 3 10 C3 9.34 3 8.68 3 8 C0.11436466 9.13364246 -0.96365486 9.94678032 -2.75 12.5625 C-5.97651679 16.05789319 -8.33837884 15.76691894 -13 16 C-13.7701658 6.22745174 -13.7701658 6.22745174 -11 1.8125 C-7.24050437 -0.45886194 -4.22561504 -1.01940908 0 0 Z " fill="#F9F9FB" transform="translate(273,152)"/>
<path d="M0 0 C0 2.31 0 4.62 0 7 C-1.546875 7.061875 -1.546875 7.061875 -3.125 7.125 C-7.54791494 8.12372273 -8.83272275 9.37052576 -11.640625 12.72265625 C-13 14 -13 14 -16 14 C-16 13.34 -16 12.68 -16 12 C-16.66 12 -17.32 12 -18 12 C-17.42541562 8.43442842 -16.14644352 6.78900304 -13.5625 4.3125 C-12.94503906 3.71050781 -12.32757813 3.10851562 -11.69140625 2.48828125 C-7.99543399 -0.76383291 -4.73655089 -0.07639598 0 0 Z " fill="#703CAE" transform="translate(240,250)"/>
<path d="M0 0 C3.31239253 0.56865108 4.71322536 1.45960947 6.875 4 C9.6972753 7.00946703 11.79546348 7.79978398 16 8 C16 9.98 16 11.96 16 14 C8.07569721 14.62151394 8.07569721 14.62151394 4.1875 12.375 C1.77378115 9.75439096 -0.13818841 7.03406333 -2 4 C-1.34 2.68 -0.68 1.36 0 0 Z " fill="#5C6DA3" transform="translate(224,160)"/>
<path d="M0 0 C0.99 0 1.98 0 3 0 C5 3 5 3 4.83984375 4.98828125 C3.81510773 7.44288149 2.62218318 8.5217687 0.5625 10.1875 C-0.05496094 10.69667969 -0.67242187 11.20585937 -1.30859375 11.73046875 C-4.85383907 14.39144965 -7.63713033 14.08079388 -12 14 C-12 11.69 -12 9.38 -12 7 C-10.948125 6.95875 -9.89625 6.9175 -8.8125 6.875 C-3.79073732 5.7224643 -3.05450419 3.98782491 0 0 Z " fill="#5D6DA3" transform="translate(273,160)"/>
<path d="M0 0 C0.66 0.99 1.32 1.98 2 3 C2.99 2.34 3.98 1.68 5 1 C5 1.99 5 2.98 5 4 C-1.28493683 8.67716229 -7.31120475 8.8643613 -15 8 C-17.39453125 6.9765625 -17.39453125 6.9765625 -19 6 C-18.34 5.54625 -17.68 5.0925 -17 4.625 C-16.34 4.08875 -15.68 3.5525 -15 3 C-15 2.34 -15 1.68 -15 1 C-14.30132812 1.01160156 -13.60265625 1.02320313 -12.8828125 1.03515625 C-11.97273438 1.04417969 -11.06265625 1.05320312 -10.125 1.0625 C-9.22007812 1.07410156 -8.31515625 1.08570313 -7.3828125 1.09765625 C-4.54785679 0.98146954 -2.920199 0 0 0 Z " fill="#6512B3" transform="translate(300,269)"/>
<path d="M0 0 C1.62580966 0.11398665 3.25067157 0.24155659 4.875 0.375 C5.77992188 0.44460938 6.68484375 0.51421875 7.6171875 0.5859375 C10 1 10 1 12 3 C11.625 5.125 11.625 5.125 11 7 C9.22992286 7.08114106 7.45877902 7.13925505 5.6875 7.1875 C4.70136719 7.22230469 3.71523437 7.25710938 2.69921875 7.29296875 C0 7 0 7 -1.85546875 5.48828125 C-2.23316406 4.99714844 -2.61085937 4.50601562 -3 4 C-2.34 4 -1.68 4 -1 4 C-0.67 2.68 -0.34 1.36 0 0 Z " fill="#640DB3" transform="translate(225,270)"/>
<path d="M0 0 C2 2 2 2 2.3125 4.4375 C2 7 2 7 0.8125 8.875 C-1 10 -1 10 -3.5625 9.875 C-6 9 -6 9 -8 6 C-7.75 3.375 -7.75 3.375 -7 1 C-4.48718205 -0.25640898 -2.78302919 -0.20872719 0 0 Z " fill="#F4F1F7" transform="translate(285,240)"/>
<path d="M0 0 C3 0.25 3 0.25 5 2.25 C5.25 4.75 5.25 4.75 5 7.25 C3 9.25 3 9.25 0 9.5 C-3 9.25 -3 9.25 -5 7.25 C-5.25 4.75 -5.25 4.75 -5 2.25 C-3 0.25 -3 0.25 0 0 Z " fill="#F5F2F8" transform="translate(218,239.75)"/>
<path d="M0 0 C3.0625 0.1875 3.0625 0.1875 5.0625 2.1875 C5.3125 4.6875 5.3125 4.6875 5.0625 7.1875 C3.0625 9.1875 3.0625 9.1875 0.0625 9.5 C-0.9275 9.396875 -1.9175 9.29375 -2.9375 9.1875 C-4.9375 6.1875 -4.9375 6.1875 -4.625 3.5625 C-3.63731654 0.1505026 -3.65603948 0.23336422 0 0 Z " fill="#F4F4F7" transform="translate(217.9375,176.8125)"/>
<path d="M0 0 C4.29 0.66 8.58 1.32 13 2 C13.33 3.98 13.66 5.96 14 8 C9.71 8 5.42 8 1 8 C-0.26041675 5.4791665 0.33774109 4.64903564 1 2 C0.67 1.34 0.34 0.68 0 0 Z " fill="#6411B3" transform="translate(201,269)"/>
<path d="M0 0 C3 -0.3125 3 -0.3125 6 0 C8 2 8 2 8.25 4.5 C8 7 8 7 6 9 C2.375 8.625 2.375 8.625 -1 8 C-1.625 5.6875 -1.625 5.6875 -2 3 C-1.34 2.01 -0.68 1.02 0 0 Z " fill="#F5F5F8" transform="translate(279,177)"/>
<path d="M0 0 C3.63 0 7.26 0 11 0 C11 1.65 11 3.3 11 5 C7.37 5 3.74 5 0 5 C0 3.35 0 1.7 0 0 Z " fill="#000000" transform="translate(242,331)"/>
<path d="M0 0 C2.90883109 1.40896506 5.57299378 2.84975764 8 5 C8.5 8.8125 8.5 8.8125 8 12 C7.443125 11.29875 6.88625 10.5975 6.3125 9.875 C3.90875268 6.88655739 1.46189568 3.94059762 -1 1 C-0.67 0.67 -0.34 0.34 0 0 Z " fill="#ECE6F3" transform="translate(272,251)"/>
<path d="M0 0 C2.15377564 2.62198774 3.40072174 4.64404172 4 8 C1.69 8 -0.62 8 -3 8 C-2.01 5.36 -1.02 2.72 0 0 Z " fill="#E5E5E5" transform="translate(393,324)"/>
<path d="M0 0 C2.15377564 2.62198774 3.40072174 4.64404172 4 8 C1.69 8 -0.62 8 -3 8 C-2.01 5.36 -1.02 2.72 0 0 Z " fill="#E5E5E5" transform="translate(106,324)"/>
<path d="M0 0 C0.66 0.33 1.32 0.66 2 1 C1.21625 1.70125 0.4325 2.4025 -0.375 3.125 C-3.08360818 6.09157086 -4.01722715 8.1582516 -5 12 C-5.33 12 -5.66 12 -6 12 C-5.73781251 7.5428126 -5.42288711 5.48477302 -2.4375 2.0625 C-1.633125 1.381875 -0.82875 0.70125 0 0 Z " fill="#737CAC" transform="translate(212,171)"/>
<path d="M0 0 C-3.4019487 2.09350689 -6.05272412 2.17942163 -10 2 C-10 1.34 -10 0.68 -10 0 C-6.33694766 -0.74926071 -3.57644848 -1.2380014 0 0 Z " fill="#6619B4" transform="translate(276,271)"/>
</svg>
